# xmcd
#
# Track frame offsets: 
#        150
#        52701
#        73626
#        97125
#        123233
#        147536
#        163376
#        198017
#        247597
#        273828
#        301392
#
# Disc length: 4380 seconds
#
# Revision: 0
# Processed by: cddbd v1.5.2PL0 Copyright (c) Steve Scherf et al.
# Submitted via: ExactAudioCopy v0.95b3
#
DISCID=94111a0b
DTITLE=Jorma Kaukonen - Live [CD2]
DYEAR=2009
DGENRE=Blues
TTITLE0=Holiday Marmalade
TTITLE1=Fools Blues
TTITLE2=Big Town
TTITLE3=Gypsy Fire
TTITLE4=Yout got to move
TTITLE5=Larue Larue
TTITLE6=Man for all seasons
TTITLE7=Hypnotation Blues
TTITLE8=Death don't have no mercy
TTITLE9=I see the light
TTITLE10=Frind of th devil
EXTD=
EXTT0=
EXTT1=
EXTT2=
EXTT3=
EXTT4=
EXTT5=
EXTT6=
EXTT7=
EXTT8=
EXTT9=
EXTT10=
PLAYORDER=
